<svg width="42" height="42" viewBox="0 0 42 42" fill="none" xmlns="http://www.w3.org/2000/svg">
<circle opacity="0.5" cx="21.002" cy="20.92" r="19.92" stroke="white"/>
<path d="M27.6433 17.2177C27.1552 17.4346 26.6296 17.5806 26.0785 17.647C26.6417 17.3095 27.0722 16.7761 27.277 16.1398C26.7502 16.4518 26.167 16.6787 25.5461 16.8004C25.0504 16.2703 24.341 15.9395 23.5586 15.9395C21.799 15.9395 20.5064 17.5806 20.9037 19.2849C18.6405 19.1709 16.6319 18.0864 15.2885 16.4386C14.5747 17.6625 14.9188 19.265 16.1317 20.0762C15.6857 20.0618 15.2663 19.9389 14.8989 19.7353C14.869 20.9969 15.7743 22.1777 17.0846 22.4411C16.7017 22.5451 16.2811 22.5695 15.854 22.4876C16.2003 23.5699 17.2085 24.3568 18.3993 24.3789C17.2517 25.2775 15.8097 25.6792 14.3633 25.5088C15.5695 26.2824 17.0005 26.7328 18.5387 26.7328C23.5984 26.7328 26.4558 22.4599 26.2832 18.6275C26.8166 18.2446 27.2781 17.7643 27.6433 17.2177Z" fill="white"/>
</svg>
