<svg width="42" height="42" viewBox="0 0 42 42" fill="none" xmlns="http://www.w3.org/2000/svg">
<circle opacity="0.5" cx="21.0802" cy="20.92" r="19.92" stroke="white"/>
<path fill-rule="evenodd" clip-rule="evenodd" d="M21.0775 14.2793C19.2736 14.2793 19.049 14.287 18.3396 14.3202C15.9271 14.4309 14.588 15.7689 14.4773 18.1814C14.4452 18.8908 14.4375 19.1165 14.4375 20.9193C14.4375 22.7232 14.4452 22.9489 14.4773 23.6572C14.588 26.0686 15.9271 27.4088 18.3396 27.5195C19.049 27.5515 19.2736 27.5593 21.0775 27.5593C22.8814 27.5593 23.1071 27.5515 23.8165 27.5195C26.2246 27.4088 27.5692 26.0708 27.6777 23.6572C27.7098 22.9489 27.7175 22.7232 27.7175 20.9193C27.7175 19.1165 27.7098 18.8908 27.6777 18.1814C27.5692 15.7722 26.229 14.4298 23.8165 14.3202C23.1071 14.287 22.8814 14.2793 21.0775 14.2793ZM21.0746 15.4775C22.8474 15.4775 23.0577 15.4842 23.7582 15.5163C25.5588 15.5982 26.3976 16.4514 26.4806 18.2376C26.5116 18.9381 26.5182 19.1472 26.5182 20.9201C26.5182 22.693 26.5116 22.9033 26.4806 23.6027C26.3976 25.3877 25.5599 26.2432 23.7582 26.3251C23.0577 26.3561 22.8485 26.3638 21.0746 26.3638C19.3017 26.3638 19.0914 26.3572 18.392 26.3251C16.5881 26.2421 15.7526 25.3855 15.6696 23.6027C15.6386 22.9033 15.6309 22.693 15.6309 20.9201C15.6309 19.1472 15.6386 18.937 15.6696 18.2376C15.7515 16.4503 16.5903 15.5971 18.392 15.5152C19.0914 15.4831 19.3017 15.4775 21.0746 15.4775ZM17.668 20.9194C17.668 19.0359 19.1952 17.5098 21.0776 17.5098C22.96 17.5098 24.4872 19.037 24.4872 20.9194C24.4872 22.803 22.96 24.329 21.0776 24.329C19.1952 24.329 17.668 22.803 17.668 20.9194ZM21.0805 23.1327C19.8577 23.1327 18.8672 22.1423 18.8672 20.9194C18.8672 19.6976 19.8577 18.7061 21.0805 18.7061C22.3023 18.7061 23.295 19.6965 23.295 20.9194C23.295 22.1423 22.3023 23.1327 21.0805 23.1327ZM23.8281 17.3749C23.8281 16.9345 24.1856 16.5781 24.6249 16.5781C25.0665 16.5781 25.4228 16.9345 25.4228 17.3749C25.4228 17.8154 25.0654 18.1717 24.6249 18.1717C24.1845 18.1717 23.8281 17.8143 23.8281 17.3749Z" fill="white"/>
</svg>
